<?xml version="1.0" encoding="iso-8859-1"?>
<!-- Generator: Adobe Illustrator 14.0.0, SVG Export Plug-In . SVG Version: 6.00 Build 43363)  -->
<!DOCTYPE svg PUBLIC "-//W3C//DTD SVG 1.1//EN" "http://www.w3.org/Graphics/SVG/1.1/DTD/svg11.dtd">
<svg version="1.1" id="Layer_1" xmlns="http://www.w3.org/2000/svg" xmlns:xlink="http://www.w3.org/1999/xlink" x="0px" y="0px"
	 width="16px" height="16px" viewBox="0 0 16 16" style="enable-background:new 0 0 16 16;" xml:space="preserve">
<path d="M15.375,7L10,2.54C9.695,2.287,9.461,2,9,2C8.375,2,8,2.516,8,3v3H1C0.45,6,0,6.45,0,7v2c0,0.55,0.45,1,1,1h7v3
	c0,0.484,0.375,1,1,1c0.461,0,0.695-0.287,1-0.54L15.375,9C15.758,8.688,16,8.445,16,8S15.758,7.313,15.375,7z"/>
</svg>
